# AST/ASF file generated using VICON BodyLanguage
# -----------------------------------------------
:version 1.10
:name VICON
:units
  mass 1.0
  length 0.45
  angle deg
:documentation
   .ast/.asf automatically generated from VICON data using
   VICON BodyBuilder and BodyLanguage model FoxedUp or BRILLIANT.MOD
:root
   order TX TY TZ RX RY RZ
   axis XYZ
   position 0 0 0  
   orientation 0 0 0 
:bonedata
  begin
     id 1 
     name lhipjoint
     direction 0.646821 -0.743844 0.168282 
     length 2.62284 
     axis 0 0 0  XYZ
  end
  begin
     id 2 
     name lfemur
     direction 0.34202 -0.939693 0  
     length 7.79098  
     axis 0 0 20  XYZ
    dof rx ry rz
    limits (-160.0 20.0)
           (-70.0 70.0)
           (-60.0 70.0)
  end
  begin
     id 3 
     name ltibia
     direction 0.34202 -0.939693 0   
     length 8.1986   
     axis 0 0 20   XYZ
    dof rx
    limits (-10.0 170.0)
  end
  begin
     id 4 
     name lfoot
     direction 0.0766762 -0.210666 0.974546   
     length 1.95107   
     axis -90 7.62852e-016 20   XYZ
    dof rx rz
    limits (-45.0 90.0)
           (-70.0 20.0)
  end
  begin
     id 5 
     name ltoes
     direction 1.53582e-011 -4.21539e-011 1   
     length 0.983514   
     axis -90 7.62852e-016 20   XYZ
    dof rx
    limits (-90.0 20.0)
  end
  begin
     id 6 
     name rhipjoint
     direction -0.658967 -0.733632 0.165972   
     length 2.65935  
     axis 0 0 0  XYZ 
  end
  begin
     id 7 
     name rfemur
     direction -0.34202 -0.939693 0   
     length 7.69405   
     axis 0 0 -20   XYZ
    dof rx ry rz
    limits (-160.0 20.0)
           (-70.0 70.0)
           (-70.0 60.0)
  end
  begin
     id 8 
     name rtibia
     direction -0.34202 -0.939693 0   
     length 8.15138   
     axis 0 0 -20   XYZ
    dof rx
    limits (-10.0 170.0)
 end
 begin
     id 9 
     name rfoot
     direction -0.0806473 -0.221577 0.971802   
     length 2.09362  
     axis -90 -7.62852e-016 -20   XYZ
    dof rx rz
    limits (-45.0 90.0)
           (-20.0 70.0)
  end
  begin
     id 10 
     name rtoes
     direction -1.53524e-011 -4.2203e-011 1   
     length 1.05224   
     axis -90 -7.62852e-016 -20   XYZ
    dof rx
    limits (-90.0 20.0)
  end
  begin
     id 11 
     name lowerback
     direction -0.0484271 0.997202 0.0569433   
     length 1.86801   
     axis 0 0 0   XYZ
    dof rx ry rz
    limits (-20.0 45.0)
           (-30.0 30.0)
           (-30.0 30.0)
  end
  begin
     id 12 
     name upperback
     direction 0.0148864 0.998882 0.0448682   
     length 1.86634   
     axis 0 0 0   XYZ
    dof rx ry rz
    limits (-20.0 45.0)
           (-30.0 30.0)
           (-30.0 30.0)
  end
  begin
     id 13 
     name thorax
     direction 0.0368776 0.99918 0.0167067   
     length 1.87554   
     axis 0 0 0   XYZ
    dof rx ry rz
    limits (-20.0 45.0)
           (-30.0 30.0)
           (-30.0 30.0)
  end
  begin
     id 14 
     name lowerneck
     direction -0.0200531 0.999751 0.00976032   
     length 1.82429   
     axis 0 0 0   XYZ
    dof rx ry rz
    limits (-20.0 45.0)
           (-30.0 30.0)
           (-30.0 30.0)
  end
  begin
     id 15 
     name upperneck
     direction 0.0113135 0.99728 -0.0728357   
     length 1.79098   
     axis 0 0 0   XYZ
    dof rx ry rz
    limits (-20.0 45.0)
           (-30.0 30.0)
           (-30.0 30.0)
  end
  begin
     id 16
     name head
     direction 0.00559662 0.999607 -0.0274604  
     length 1.88003  
     axis 0 0 0   XYZ
    dof rx ry rz
    limits (-20.0 45.0)
           (-30.0 30.0)
           (-30.0 30.0)
  end
  begin
     id 17 
     name lclavicle
     direction 0.931914 0.362632 -0.00585704  
     length 3.94155  
     axis 0 0 0   XYZ
    dof ry rz
    limits (-20.0 10.0)
           (0.0 20.0)
  end
  begin
     id 18 
     name lhumerus
     direction 1 -4.48969e-011 2.13403e-027   
     length 5.77473   
     axis 180 -30 -90   XYZ
    dof rx ry rz
    limits (-60.0 90.0)
           (-90.0 90.0)
           (-90.0 90.0)
  end
  begin
     id 19
     name lradius
     direction 1 -4.48969e-011 5.41017e-027   
     length 3.53732   
     axis 180 -30 -90   XYZ
    dof rx
    limits (-10.0 170.0)
  end
  begin
     id 20
     name lwrist
     direction 1 -4.48986e-011 1.36145e-026   
     length 1.76866   
     axis -8.75986e-015 90 90   XYZ
    dof ry
    limits (-180.0 0.0)
 end
  begin
     id 21 
     name lhand
     direction 1 -4.48703e-011 2.72291e-026   
     length 0.556229   
     axis -1.73745e-014 90 90   XYZ
    dof rx rz
    limits (-90.0 90.0)
           (-45.0 45.0)
  end
  begin
     id 22 
     name lfingers
     direction 1 -4.49204e-011 5.44582e-026   
     length 0.448446   
     axis -3.4749e-014 90 90   XYZ
    dof rx
    limits (0.0 90.0)
  end
  begin
     id 23
     name lthumb
     direction 0.707107 -6.34773e-011 0.707107   
     length 0.643881   
     axis -90 45 2.85299e-015   XYZ
    dof rx rz
    limits (-45.0 45.0)
           (-45.0 45.0)
  end
  begin
     id 24 
     name rclavicle
     direction -0.951782 0.300043 0.0639076   
     length 3.96398  
     axis 0 0 0   XYZ 
    dof ry rz
    limits (-10.0 20.0)
           (-20.0 0.0)
  end
  begin
     id 25 
     name rhumerus
     direction -1 -4.48967e-011 6.14867e-028  
     length 5.79581   
     axis 180 30 90   XYZ
    dof rx ry rz
    limits (-90.0 60.0)
           (-90.0 90.0)
           (-90.0 90.0)
  end
  begin
     id 26 
     name rradius
     direction -1 -4.48966e-011 9.26908e-027   
     length 3.37412   
     axis 180 30 90   XYZ
    dof rx
    limits (-10.0 170.0)
  end
  begin
     id 27 
     name rwrist
     direction -1 -4.48999e-011 1.36145e-026   
     length 1.68706   
     axis -8.75986e-015 -90 -90   XYZ
    dof ry
    limits (-180.0 0.0)
  end
  begin
     id 28
     name rhand
     direction -1 -4.49032e-011 2.72291e-026   
     length 0.680496   
     axis -1.73745e-014 -90 -90   XYZ
    dof rx rz
    limits (-90.0 90.0)
           (-45.0 45.0)
  end
  begin
     id 29
     name rfingers
     direction -1 -4.48876e-011 5.44582e-026   
     length 0.548633   
     axis -3.4749e-014 -90 -90   XYZ
    dof rx
    limits (0.0 90.0)
  end
  begin
     id 30
     name rthumb
     direction -0.707107 -6.34964e-011 0.707107   
     length 0.787731   
     axis -90 -45 -2.85299e-015   XYZ
    dof rx rz
    limits (-45.0 45.0)
           (-45.0 45.0)
  end
:hierarchy
  begin
    root lhipjoint rhipjoint lowerback
    lhipjoint lfemur
    lfemur ltibia
    ltibia lfoot
    lfoot ltoes
    rhipjoint rfemur
    rfemur rtibia
    rtibia rfoot
    rfoot rtoes
    lowerback upperback
    upperback thorax
    thorax lowerneck lclavicle rclavicle
    lowerneck upperneck
    upperneck head
    lclavicle lhumerus
    lhumerus lradius
    lradius lwrist
    lwrist lhand lthumb
    lhand lfingers
    rclavicle rhumerus
    rhumerus rradius
    rradius rwrist
    rwrist rhand rthumb
    rhand rfingers
  end

#!OML:ASF H:\Terrain\Patient Classification 1\PaulMetrics\March1\PaulMetrics.ASF
:FULLY-SPECIFIED
:DEGREES
425
root -12.409 18.3399 7.84745 -160.982 -30.2713 173.813
lowerback -6.07012 -1.58299 -8.49635
upperback -5.67729 -2.15769 0.0343937
thorax -2.238 -0.967982 4.71321
lowerneck -2.7137 -4.29688 -5.18383
upperneck 9.86199 -6.24617 5.3783
head 4.12573 -3.16503 2.4455
rclavicle 6.36856e-014 3.97569e-015
rhumerus -57.9168 19.9025 -94.8397
rradius 44.3862
rwrist -10.5869
rhand -12.2294 -33.5251
rfingers 7.12502
rthumb 13.8359 -63.0449
lclavicle 6.36856e-014 3.97569e-015
lhumerus -41.0828 -7.87608 75.804
lradius 50.8277
lwrist 10.1226
lhand -17.4297 -7.33841
lfingers 7.12502
lthumb 8.82071 22.4572
rfemur -43.0504 -9.49865 25.5391
rtibia 58.5912
rfoot -11.193 -10.1228
rtoes -20.9009
lfemur -26.7391 4.15422 -24.99
ltibia 30.4256
lfoot -21.3725 11.0224
ltoes -11.8984
426
root -12.4827 18.3348 7.75424 -160.875 -29.464 173.566
lowerback -5.93599 -1.65618 -8.76431
upperback -5.72268 -2.26698 0.0563128
thorax -2.33989 -1.01045 4.88619
lowerneck -2.98626 -4.46821 -5.14221
upperneck 9.93858 -6.44116 5.12662
head 4.20478 -3.26317 2.33517
rclavicle 1.17966e-014 -9.93923e-016
rhumerus -58.05 20.2251 -94.843
rradius 44.4451
rwrist -10.6883
rhand -12.5095 -33.3403
rfingers 7.12502
rthumb 13.566 -62.8783
lclavicle 1.17966e-014 -9.93923e-016
lhumerus -40.9437 -7.95484 76.0053
lradius 51.8177
lwrist 10.5385
lhand -17.601 -7.91023
lfingers 7.12502
lthumb 8.65539 21.8923
rfemur -43.5296 -9.31583 25.495
rtibia 56.5726
rfoot -11.0115 -10.3574
rtoes -18.1949
lfemur -26.1054 3.97049 -25.3773
ltibia 30.2207
lfoot -22.0703 11.7458
ltoes -12.0831
427
root -12.5571 18.3373 7.65381 -160.905 -28.7242 173.348
lowerback -5.82848 -1.78843 -8.98553
upperback -5.70423 -2.44372 0.113889
thorax -2.34729 -1.09052 5.0649
lowerneck -2.94841 -4.57195 -5.13444
upperneck 9.7598 -6.54634 4.92104
head 4.12887 -3.32021 2.25784
rclavicle -6.21264e-014 -3.43897e-014
rhumerus -58.0651 20.5662 -94.7514
rradius 44.4445
rwrist -11.0467
rhand -12.3806 -33.6967
rfingers 7.12502
rthumb 13.6902 -63.2264
lclavicle -6.21264e-014 -3.43897e-014
lhumerus -40.9303 -8.11955 76.2425
lradius 52.9316
lwrist 11.2064
lhand -17.8634 -8.01463
lfingers 7.12502
lthumb 8.40214 21.7982
rfemur -43.7777 -9.15393 25.4486
rtibia 54.4154
rfoot -11.0706 -10.565
rtoes -16.7913
lfemur -25.2191 3.75268 -25.6817
ltibia 29.8575
lfoot -22.9804 12.088
ltoes -10.5267
428
root -12.6291 18.3455 7.54783 -161.199 -28.1062 173.474
lowerback -5.78142 -1.88244 -8.82179
upperback -5.60984 -2.56317 0.187039
thorax -2.25524 -1.15696 5.04285
lowerneck -2.83389 -4.58938 -5.09102
upperneck 9.50127 -6.54455 4.79191
head 4.00526 -3.32084 2.20831
rclavicle -1.04797e-014 2.08724e-014
rhumerus -58.0634 20.7 -94.6961
rradius 44.4398
rwrist -11.182
rhand -12.201 -33.7187
rfingers 7.12502
rthumb 13.8633 -63.2366
lclavicle -1.04797e-014 2.08724e-014
lhumerus -40.7766 -8.41435 76.4136
lradius 53.9781
lwrist 11.6853
lhand -18.3051 -7.67363
lfingers 7.12502
lthumb 7.97583 22.1559
rfemur -43.8251 -8.99547 25.7785
rtibia 52.1264
rfoot -11.048 -10.9732
rtoes -18.2901
lfemur -24.1467 3.5029 -25.6035
ltibia 29.3509
lfoot -23.8425 12.4502
ltoes -8.9956
429
root -12.6988 18.3503 7.43949 -161.313 -27.4016 173.467
lowerback -5.83031 -1.94763 -8.79931
upperback -5.58086 -2.64458 0.20616
thorax -2.18476 -1.20242 5.04345
lowerneck -3.02462 -4.65943 -5.07499
upperneck 9.65569 -6.61617 4.56041
head 4.0895 -3.36239 2.11787
rclavicle 3.35014e-014 2.46493e-014
rhumerus -58.1585 20.6892 -94.648
rradius 44.5297
rwrist -11.128
rhand -12.1317 -33.7714
rfingers 7.12502
rthumb 13.9301 -63.2848
lclavicle 3.35014e-014 2.46493e-014
lhumerus -40.5311 -8.59997 76.541
lradius 54.7556
lwrist 11.7876
lhand -18.8084 -7.59446
lfingers 7.12502
lthumb 7.49007 22.2529
rfemur -43.9914 -8.96877 26.0915
rtibia 49.7595
rfoot -11.1899 -11.4697
rtoes -19.8733
lfemur -23.2387 3.54124 -25.7294
ltibia 28.8778
lfoot -24.3911 12.7693
ltoes -8.48467
430
root -12.7706 18.3422 7.33839 -161.031 -26.5916 173.07
lowerback -6.09948 -1.9859 -9.13564
upperback -5.56315 -2.6642 0.166511
thorax -2.00752 -1.21547 5.17892
lowerneck -3.29046 -4.78876 -5.46686
upperneck 10.1459 -6.8069 4.87953
head 3.91783 -3.43698 2.05519
rclavicle 2.29969e-014 -3.37934e-015
rhumerus -57.9928 20.5894 -94.3339
rradius 44.5641
rwrist -11.1245
rhand -11.8719 -33.8793
rfingers 7.12502
rthumb 14.1804 -63.3753
lclavicle 2.29969e-014 -3.37934e-015
lhumerus -40.0527 -8.69925 76.801
lradius 55.3662
lwrist 11.7602
lhand -19.0381 -7.34537
lfingers 7.12502
lthumb 7.26834 22.5098
rfemur -44.3448 -8.97355 26.031
rtibia 47.3308
rfoot -11.6683 -11.7529
rtoes -20.118
lfemur -22.6363 3.58999 -26.3025
ltibia 28.5039
lfoot -24.8817 12.8945
ltoes -7.85265
431
root -12.8369 18.3329 7.23613 -161 -25.9776 173.056
lowerback -6.18941 -1.96385 -9.08926
upperback -5.58013 -2.63363 0.16713
thorax -1.98165 -1.20462 5.15247
lowerneck -3.05877 -4.96325 -5.99002
upperneck 9.78699 -7.05562 5.42593
head 3.82119 -3.55611 2.30139
rclavicle 3.75206e-014 5.96354e-016
rhumerus -57.8249 20.3736 -94.0955
rradius 44.3584
rwrist -11.1485
rhand -11.7394 -33.397
rfingers 7.12502
rthumb 14.3081 -62.884
lclavicle 3.75206e-014 5.96354e-016
lhumerus -39.5744 -8.96427 76.9947
lradius 56.0291
lwrist 11.5413
lhand -18.8268 -7.06939
lfingers 7.12502
lthumb 7.47234 22.7786
rfemur -44.3885 -8.78932 26.2762
rtibia 44.8208
rfoot -11.9639 -12.0499
rtoes -19.1701
lfemur -22.0096 3.35925 -26.4025
ltibia 28.197
lfoot -25.5127 13.1889
ltoes -7.54197
432
root -12.898 18.33 7.12839 -161.242 -25.4289 173.282
lowerback -6.13199 -1.98905 -8.82841
upperback -5.61955 -2.68885 0.186067
thorax -2.0524 -1.23695 5.02603
lowerneck -2.3436 -5.07488 -6.1789
upperneck 8.8393 -7.20228 5.57884
head 3.81505 -3.65838 2.65633
rclavicle -1.17221e-014 3.83654e-014
rhumerus -57.9542 20.2159 -94.1544
rradius 44.2355
rwrist -11.0794
rhand -11.8612 -33.1455
rfingers 7.12502
rthumb 14.1907 -62.6408
lclavicle -1.17221e-014 3.83654e-014
lhumerus -39.3445 -9.27751 76.9719
lradius 56.8152
lwrist 11.3796
lhand -18.5229 -7.00762
lfingers 7.12502
lthumb 7.76562 22.8298
rfemur -44.1495 -8.63383 26.7817
rtibia 42.2307
rfoot -11.6629 -12.6035
rtoes -20.1831
lfemur -21.2297 2.99265 -26.1932
ltibia 27.9542
lfoot -26.3331 13.5303
ltoes -6.69422
433
root -12.9594 18.3248 7.02198 -161.243 -24.8078 173.151
lowerback -6.21438 -2.11292 -8.8787
upperback -5.68553 -2.86046 0.154925
thorax -2.0513 -1.32566 5.01016
lowerneck -1.74373 -5.18381 -5.90029
upperneck 8.4804 -7.35563 5.30027
head 3.55344 -3.74399 2.51578
rclavicle -2.83889e-014 2.5842e-015
rhumerus -58.1667 20.0372 -94.1877
rradius 44.3536
rwrist -10.8998
rhand -11.8511 -33.5005
rfingers 7.12502
rthumb 14.2004 -62.9951
lclavicle -2.83889e-014 2.5842e-015
lhumerus -39.3957 -9.70877 77.0082
lradius 57.7865
lwrist 11.7657
lhand -18.9359 -7.8456
lfingers 7.12502
lthumb 7.36703 22.0061
rfemur -44.0163 -8.5511 26.9188
rtibia 39.5701
rfoot -11.5078 -13.2219
rtoes -21.2591
lfemur -20.5333 2.7008 -26.3919
ltibia 27.7055
lfoot -26.9715 13.8219
ltoes -5.71508
434
root -13.0194 18.3136 6.91277 -161.109 -24.2494 172.946
lowerback -6.31212 -2.24472 -8.98172
upperback -5.78287 -3.04313 0.154555
thorax -2.07029 -1.41712 5.05525
lowerneck -1.73899 -5.35706 -5.98031
upperneck 8.68534 -7.58991 5.11973
head 3.63393 -3.87264 2.4561
rclavicle 3.34207e-014 -4.17448e-015
rhumerus -58.225 19.8196 -94.0536
rradius 44.4251
rwrist -10.8322
rhand -11.7251 -33.9146
rfingers 7.12502
rthumb 14.3219 -63.4007
lclavicle 3.34207e-014 -4.17448e-015
lhumerus -39.4178 -10.1408 77.1623
lradius 58.6729
lwrist 12.2503
lhand -19.8343 -9.28849
lfingers 7.12502
lthumb 6.49976 20.5918
rfemur -43.9124 -8.35092 26.8826
rtibia 36.8543
rfoot -11.6399 -13.9048
rtoes -19.3414
lfemur -19.9371 2.70747 -26.7156
ltibia 27.3775
lfoot -27.2361 14.0935
ltoes -6.03702
435
root -13.0818 18.3028 6.79786 -161.034 -23.6386 172.72
lowerback -6.40061 -2.32603 -9.11349
upperback -5.74269 -3.13452 0.180804
thorax -1.95922 -1.4649 5.14569
lowerneck -2.1868 -5.56821 -6.52227
upperneck 8.95464 -7.85403 5.31675
head 3.87541 -4.00814 2.59689
rclavicle 1.21383e-014 8.74653e-015
rhumerus -58.0638 19.7748 -93.8418
rradius 44.441
rwrist -10.8474
rhand -11.9263 -34.0864
rfingers 7.12502
rthumb 14.128 -63.5861
lclavicle 1.21383e-014 8.74653e-015
lhumerus -39.0207 -10.366 77.3622
lradius 59.3176
lwrist 12.3439
lhand -20.6431 -9.52233
lfingers 7.12502
lthumb 5.71897 20.3805
rfemur -43.6886 -8.21486 26.8399
rtibia 34.1411
rfoot -11.312 -14.8714
rtoes -18.3804
lfemur -19.2091 2.88566 -27.0904
ltibia 26.9565
lfoot -27.4425 14.344
ltoes -7.68028
436
root -13.1388 18.3023 6.68179 -160.966 -23.0359 172.634
lowerback -6.61346 -2.39274 -9.2382
upperback -5.94668 -3.23387 0.264945
thorax -2.03512 -1.51145 5.29437
lowerneck -1.42807 -5.81388 -6.54916
upperneck 8.70061 -8.20053 4.99474
head 3.64567 -4.20561 2.49404
rclavicle -2.34193e-014 1.11319e-014
rhumerus -58.6163 19.7614 -93.8885
rradius 44.5998
rwrist -10.8932
rhand -12.1979 -34.1985
rfingers 7.12502
rthumb 13.8663 -63.7163
lclavicle -2.34193e-014 1.11319e-014
lhumerus -39.2543 -10.827 77.7102
lradius 60.0844
lwrist 12.4267
lhand -21.5329 -8.62772
lfingers 7.12502
lthumb 4.85984 21.2965
rfemur -43.4814 -8.04472 27.0016
rtibia 31.4505
rfoot -10.8544 -16.2221
rtoes -19.9319
lfemur -18.4995 2.98766 -27.2767
ltibia 26.4429
lfoot -27.6476 14.6464
ltoes -9.35354
437
root -13.1864 18.3071 6.56514 -160.959 -22.5576 172.825
lowerback -6.82463 -2.42008 -9.01336
upperback -5.9767 -3.26511 0.354478
thorax -1.94772 -1.53873 5.25147
lowerneck -1.52432 -6.26434 -6.46353
upperneck 8.67988 -8.77074 4.65212
head 3.66885 -4.49218 2.32966
rclavicle 2.50407e-014 3.57812e-015
rhumerus -58.6827 19.5994 -93.7724
rradius 44.8291
rwrist -11.024
rhand -11.8186 -34.4632
rfingers 7.12502
rthumb 14.2318 -63.9556
lclavicle 2.50407e-014 3.57812e-015
lhumerus -38.9858 -11.3845 77.9272
lradius 60.7092
lwrist 12.4058
lhand -21.7343 -7.59978
lfingers 7.12502
lthumb 4.6653 22.3289
rfemur -43.2703 -7.74838 27.4748
rtibia 28.7876
rfoot -10.6412 -17.8789
rtoes -21.6095
lfemur -17.846 3.17395 -27.1329
ltibia 25.8857
lfoot -27.5543 14.8614
ltoes -10.5906
438
root -13.2372 18.3011 6.45026 -160.847 -22.0405 172.67
lowerback -6.9221 -2.46356 -9.00199
upperback -6.02979 -3.32942 0.301689
thorax -1.944 -1.57627 5.18248
lowerneck -2.07259 -6.79984 -6.72632
upperneck 9.2446 -9.47957 4.57888
head 4.03438 -4.85284 2.2887
rclavicle -2.52394e-014 -1.74931e-014
rhumerus -58.8068 19.3417 -93.7011
rradius 45.2074
rwrist -11.1412
rhand -11.3986 -34.4113
rfingers 7.12502
rthumb 14.6365 -63.8747
lclavicle -2.52394e-014 -1.74931e-014
lhumerus -38.6843 -11.829 78.0355
lradius 61.2416
lwrist 12.0934
lhand -21.0786 -6.91545
lfingers 7.12502
lthumb 5.29847 22.9983
rfemur -43.0354 -7.62442 27.6118
rtibia 26.1285
rfoot -10.2914 -19.6413
rtoes -21.8145
lfemur -17.1423 3.36843 -27.3618
ltibia 25.4091
lfoot -27.4202 14.5848
ltoes -10.7123
